<svg xmlns="http://www.w3.org/2000/svg" viewBox="0 0 960 540" role="img" aria-labelledby="title desc">
  <title id="title">Call Center Performance Dashboards</title>
  <desc id="desc">Stylized dashboard panels representing leadership and training views for a call center.</desc>
  <defs>
    <linearGradient id="bg" x1="0%" y1="0%" x2="100%" y2="100%">
      <stop offset="0%" stop-color="#eff6ff"/>
      <stop offset="100%" stop-color="#dbeafe"/>
    </linearGradient>
    <linearGradient id="accent" x1="0%" y1="0%" x2="0%" y2="100%">
      <stop offset="0%" stop-color="#60a5fa"/>
      <stop offset="100%" stop-color="#2563eb"/>
    </linearGradient>
  </defs>
  <rect width="960" height="540" fill="url(#bg)" rx="28"/>
  <g transform="translate(60 60)">
    <rect width="380" height="360" rx="18" fill="#ffffff" stroke="#bfdbfe" stroke-width="3"/>
    <text x="30" y="48" font-family="Inter, Arial, sans-serif" font-size="32" font-weight="600" fill="#1e3a8a">Leadership</text>
    <rect x="30" y="82" width="320" height="72" rx="12" fill="#ebf2ff"/>
    <text x="48" y="126" font-family="Inter, Arial, sans-serif" font-size="26" fill="#1d4ed8">Resolution: 92%</text>
    <g transform="translate(30 176)">
      <rect width="16" height="96" x="8" y="56" fill="#c4d9ff" rx="6"/>
      <rect width="16" height="128" x="48" y="24" fill="#93c5fd" rx="6"/>
      <rect width="16" height="164" x="88" y="-12" fill="url(#accent)" rx="6"/>
      <rect width="16" height="120" x="128" y="32" fill="#93c5fd" rx="6"/>
      <rect width="16" height="84" x="168" y="68" fill="#c4d9ff" rx="6"/>
      <rect width="16" height="146" x="208" y="6" fill="#60a5fa" rx="6"/>
      <rect width="16" height="104" x="248" y="46" fill="#93c5fd" rx="6"/>
      <rect width="16" height="180" x="288" y="-28" fill="url(#accent)" rx="6"/>
    </g>
    <path d="M30 300 C90 240 160 276 220 236 C280 196 340 212 360 248" fill="none" stroke="#1d4ed8" stroke-width="6" stroke-linecap="round"/>
    <circle cx="110" cy="260" r="9" fill="#2563eb"/>
    <circle cx="180" cy="232" r="9" fill="#2563eb"/>
    <circle cx="260" cy="210" r="9" fill="#2563eb"/>
    <circle cx="336" cy="246" r="9" fill="#2563eb"/>
  </g>
  <g transform="translate(520 60)">
    <rect width="380" height="360" rx="18" fill="#ffffff" stroke="#bfdbfe" stroke-width="3"/>
    <text x="30" y="48" font-family="Inter, Arial, sans-serif" font-size="32" font-weight="600" fill="#1e3a8a">Training</text>
    <text x="30" y="98" font-family="Inter, Arial, sans-serif" font-size="24" fill="#1f2937">Bottom 20 Agents</text>
    <g transform="translate(30 126)">
      <rect width="18" height="176" x="8" y="20" fill="url(#accent)" rx="6"/>
      <rect width="18" height="148" x="52" y="48" fill="#60a5fa" rx="6"/>
      <rect width="18" height="120" x="96" y="76" fill="#93c5fd" rx="6"/>
      <rect width="18" height="108" x="140" y="88" fill="#c4d9ff" rx="6"/>
      <rect width="18" height="160" x="184" y="36" fill="#60a5fa" rx="6"/>
      <rect width="18" height="132" x="228" y="64" fill="#93c5fd" rx="6"/>
      <rect width="18" height="180" x="272" y="16" fill="url(#accent)" rx="6"/>
      <rect width="18" height="144" x="316" y="52" fill="#60a5fa" rx="6"/>
    </g>
    <rect x="30" y="334" width="180" height="20" rx="10" fill="#dbeafe"/>
    <rect x="220" y="334" width="140" height="20" rx="10" fill="#bfdbfe"/>
  </g>
  <g transform="translate(60 444)">
    <rect width="840" height="72" rx="18" fill="#1d4ed8" opacity="0.9"/>
    <text x="42" y="488" font-family="Inter, Arial, sans-serif" font-size="26" fill="#ffffff">Actionable insights for leaders and targeted coaching for agents</text>
  </g>
</svg>
